HIERARCHY
ROOT Hips
{
	OFFSET 0.00000 0.00000 0.00000
	CHANNELS 6 Xposition Yposition Zposition Zrotation Yrotation Xrotation 
	JOINT LHipJoint
	{
		OFFSET 0 0 0
		CHANNELS 3 Zrotation Yrotation Xrotation
		JOINT LeftUpLeg
		{
			OFFSET 1.86795 -1.59681 0.65681
			CHANNELS 3 Zrotation Yrotation Xrotation
			JOINT LeftLeg
			{
				OFFSET 2.30491 -6.33268 0.00000
				CHANNELS 3 Zrotation Yrotation Xrotation
				JOINT LeftFoot
				{
					OFFSET 2.46780 -6.78022 0.00000
					CHANNELS 3 Zrotation Yrotation Xrotation
					JOINT LeftToeBase
					{
						OFFSET 0.07897 -0.21698 1.59652
						CHANNELS 3 Zrotation Yrotation Xrotation
						End Site
						{
							OFFSET 0.00000 -0.00000 0.82310
						}
					}
				}
			}
		}
	}
	JOINT RHipJoint
	{
		OFFSET 0 0 0
		CHANNELS 3 Zrotation Yrotation Xrotation
		JOINT RightUpLeg
		{
			OFFSET -1.93650 -1.59681 0.65681
			CHANNELS 3 Zrotation Yrotation Xrotation
			JOINT RightLeg
			{
				OFFSET -2.29410 -6.30299 0.00000
				CHANNELS 3 Zrotation Yrotation Xrotation
				JOINT RightFoot
				{
					OFFSET -2.48738 -6.83403 0.00000
					CHANNELS 3 Zrotation Yrotation Xrotation
					JOINT RightToeBase
					{
						OFFSET -0.08699 -0.23899 1.89395
						CHANNELS 3 Zrotation Yrotation Xrotation
						End Site
						{
							OFFSET -0.00000 -0.00000 0.96904
						}
					}
				}
			}
		}
	}
	JOINT LowerBack
	{
		OFFSET 0 0 0
		CHANNELS 3 Zrotation Yrotation Xrotation
		JOINT Spine
		{
			OFFSET 0.03629 1.99740 -0.07548
			CHANNELS 3 Zrotation Yrotation Xrotation
			JOINT Spine1
			{
				OFFSET 0.03970 1.94298 0.17218
				CHANNELS 3 Zrotation Yrotation Xrotation
				JOINT Neck
				{
					OFFSET 0 0 0
					CHANNELS 3 Zrotation Yrotation Xrotation
					JOINT Neck1
					{
						OFFSET -0.05054 1.79469 0.04241
						CHANNELS 3 Zrotation Yrotation Xrotation
						JOINT Head
						{
							OFFSET 0.05195 1.78475 -0.22133
							CHANNELS 3 Zrotation Yrotation Xrotation
							End Site
							{
								OFFSET 0.02420 1.80711 -0.07950
							}
						}
					}
				}
				JOINT LeftShoulder
				{
					OFFSET 0 0 0
					CHANNELS 3 Zrotation Yrotation Xrotation
					JOINT LeftArm
					{
						OFFSET 2.92134 1.19850 0.36056
						CHANNELS 3 Zrotation Yrotation Xrotation
						JOINT LeftForeArm
						{
							OFFSET 4.84137 -0.00000 0.00000
							CHANNELS 3 Zrotation Yrotation Xrotation
							JOINT LeftHand
							{
								OFFSET 3.24520 -0.00000 -0.00000
								CHANNELS 3 Zrotation Yrotation Xrotation
								JOINT LeftFingerBase
								{
									OFFSET 0 0 0
									CHANNELS 3 Zrotation Yrotation Xrotation
									JOINT LeftHandIndex1
									{
										OFFSET 0.52122 -0.00000 0.00000
										CHANNELS 3 Zrotation Yrotation Xrotation
										End Site
										{
											OFFSET 0.42022 -0.00000 0.00000
										}
									}
								}
								JOINT LThumb
								{
									OFFSET 0 0 0
									CHANNELS 3 Zrotation Yrotation Xrotation
									End Site
									{
										OFFSET 0.42664 -0.00000 0.42664
									}
								}
							}
						}
					}
				}
				JOINT RightShoulder
				{
					OFFSET 0 0 0
					CHANNELS 3 Zrotation Yrotation Xrotation
					JOINT RightArm
					{
						OFFSET -2.84327 1.20795 0.50191
						CHANNELS 3 Zrotation Yrotation Xrotation
						JOINT RightForeArm
						{
							OFFSET -4.72284 -0.00000 0.00000
							CHANNELS 3 Zrotation Yrotation Xrotation
							JOINT RightHand
							{
								OFFSET -3.23459 -0.00000 0.00000
								CHANNELS 3 Zrotation Yrotation Xrotation
								JOINT RightFingerBase
								{
									OFFSET 0 0 0
									CHANNELS 3 Zrotation Yrotation Xrotation
									JOINT RightHandIndex1
									{
										OFFSET -0.30742 -0.00000 0.00000
										CHANNELS 3 Zrotation Yrotation Xrotation
										End Site
										{
											OFFSET -0.24785 -0.00000 0.00000
										}
									}
								}
								JOINT RThumb
								{
									OFFSET 0 0 0
									CHANNELS 3 Zrotation Yrotation Xrotation
									End Site
									{
										OFFSET -0.25163 -0.00000 0.25163
									}
								}
							}
						}
					}
				}
			}
		}
	}
}
MOTION
Frames: 6
Frame Time: .0083333
10.1481 18.0304 -5.2111 0 0 0 0 0 0 -21 0 0 0 0 0 0 0 0 0 0 0 0 0 0 21 0 0 0 0 0 0 0 0 0 0 0 0 0 0 0 0 0 0 0 0 0 0 -16 0 0 21 0 0 11 0 0 0 -8 0 0 0 0 0 0 0 0 0 0 0 0 0 0 0 0 0 0 0 0 8 0 0 0 0 0 0 0 0 0 0 0 0 0 0 0 0 0
10.1481 18.0304 -5.2111 1.0400 -26.2365 8.9959 0.0000 0.0000 0.0000 -25.6910 -21.3365 -2.4128 1.1346 6.7649 19.0206 1.3232 17.8925 22.5392 1.0309 6.4583 18.1200 0.0000 0.0000 0.0000 23.2479 26.2593 -14.9703 -2.3589 -9.5767 27.6165 -1.5084 -21.5526 24.9770 -0.6912 5.3151 -14.8095 -0.5134 1.0147 -8.5069 -0.0120 1.3111 -6.7794 0.3593 0.6471 -2.2671 -5.4565 -1.6388 -1.7079 5.1864 -2.8798 19.7332 2.3976 -1.4631 6.4002 -0.0000 -0.0000 0.0000 -14.4941 -0.7476 -21.7535 13.0891 -21.4176 -2.4857 -0.0000 -0.0000 31.9960 -27.6429 31.3373 -15.2369 -7.1250 0.0000 -0.0000 -58.4629 52.1913 -14.3706 -0.0000 -0.0000 0.0000 0.1535 11.1015 -5.5419 -12.1019 19.9573 -2.1369 0.0000 -0.0000 -22.7516 4.7259 -0.9100 -0.0752 7.1250 -0.0000 -0.0000 24.2474 -30.2643 9.5053
10.1410 18.0329 -5.2024 1.0434 -26.3057 9.0131 0.0000 0.0000 0.0000 -25.6743 -21.5551 -2.4259 1.1553 6.8241 19.1954 1.0118 19.3157 21.0746 1.6892 8.1862 23.2811 0.0000 0.0000 0.0000 23.2431 26.4507 -14.7911 -2.3378 -9.5369 27.4897 -1.4949 -21.7709 24.9857 -0.7310 5.4625 -15.2324 -0.4743 1.0826 -8.5904 -0.0516 1.3988 -6.7685 0.3039 0.6886 -2.2087 -5.0714 -1.3840 -1.8040 5.0806 -2.5350 19.7637 2.3196 -1.2739 6.4005 -0.0000 -0.0000 0.0000 -14.4804 -0.9720 -22.0580 13.0328 -21.3353 -2.4652 -0.0000 -0.0000 32.3352 -27.6729 31.5293 -15.3353 -7.1250 0.0000 -0.0000 -58.6786 52.3103 -14.6732 -0.0000 -0.0000 0.0000 0.1763 10.9486 -5.6466 -12.0936 19.9449 -2.1341 0.0000 -0.0000 -22.5832 5.2568 -0.7897 -0.0727 7.1250 -0.0000 -0.0000 24.6046 -30.1299 9.7601
10.1327 18.0317 -5.1955 0.8144 -26.3569 9.0724 0.0000 0.0000 0.0000 -25.4762 -21.6004 -2.3703 1.1714 6.8701 19.3312 0.8108 20.0640 20.0878 2.1082 9.0880 26.0710 0.0000 0.0000 0.0000 23.5215 26.6158 -14.5190 -2.3134 -9.4905 27.3420 -1.4849 -22.0429 25.0372 -0.7280 5.4516 -15.2013 -0.2548 1.1541 -8.5868 -0.0283 1.4807 -6.7627 0.2103 0.7223 -2.2002 -5.0309 -1.1719 -1.8423 5.3004 -2.2854 19.8329 2.3996 -1.1331 6.4158 0.0000 -0.0000 0.0000 -14.3803 -1.0528 -21.7842 12.9942 -21.2787 -2.4512 -0.0000 -0.0000 32.1028 -27.3513 31.3334 -15.0557 -7.1250 0.0000 -0.0000 -58.2437 52.2435 -14.3670 0.0000 -0.0000 0.0000 0.3543 10.9380 -6.4205 -12.0437 19.8702 -2.1171 0.0000 -0.0000 -21.8202 5.7832 0.0706 0.0071 7.1250 -0.0000 -0.0000 24.7785 -29.3206 10.3770
10.1224 18.0315 -5.1857 0.6534 -26.4012 9.2038 0.0000 0.0000 0.0000 -25.3102 -21.6582 -2.4542 1.1918 6.9275 19.5008 0.7847 20.0838 19.9235 2.1970 9.2649 26.6276 0.0000 0.0000 0.0000 23.7021 26.8282 -14.3477 -2.2863 -9.4385 27.1769 -1.4690 -22.2500 25.0313 -0.7243 5.4381 -15.1625 -0.1198 1.2346 -8.7381 -0.0057 1.5783 -6.8049 0.1672 0.7665 -2.1589 -5.0679 -0.9632 -1.8626 5.5329 -2.0396 19.9512 2.4973 -0.9990 6.4443 -0.0000 -0.0000 0.0000 -14.3366 -1.0567 -21.1940 13.0073 -21.2979 -2.4559 -0.0000 -0.0000 31.6093 -27.4249 31.1443 -15.0227 -7.1250 0.0000 -0.0000 -58.1090 52.1063 -14.0708 -0.0000 -0.0000 0.0000 0.4116 10.7995 -6.6335 -12.0116 19.8220 -2.1062 0.0000 -0.0000 -21.6114 6.0964 0.1831 0.0196 7.1250 -0.0000 -0.0000 24.9761 -29.2039 10.5541
10.1143 18.0298 -5.1773 0.5691 -26.3895 9.2708 0.0000 0.0000 0.0000 -25.1967 -21.6990 -2.5853 1.2159 6.9945 19.6992 0.7658 20.0316 19.7714 2.3352 9.5320 27.4741 0.0000 0.0000 0.0000 23.8203 27.0231 -14.1518 -2.2562 -9.3804 26.9928 -1.4549 -22.5422 25.0717 -0.7225 5.4314 -15.1432 0.0057 1.3020 -8.8135 -0.0107 1.6590 -6.8596 0.0982 0.8019 -2.1714 -4.9016 -0.7222 -1.7446 5.5089 -1.7192 19.9387 2.4813 -0.8347 6.3996 0.0000 0.0000 0.0000 -14.3533 -1.1112 -20.6759 13.0252 -21.3241 -2.4624 -0.0000 -0.0000 31.1351 -27.5162 31.3470 -15.1628 -7.1250 0.0000 -0.0000 -58.3792 52.2214 -14.3871 0.0000 0.0000 0.0000 0.3692 10.6266 -6.4357 -11.9955 19.7980 -2.1008 0.0000 -0.0000 -21.7214 6.5569 0.3921 0.0451 7.1250 -0.0000 -0.0000 25.2547 -28.9928 10.8387
